<svg width="24" height="24" viewBox="0 0 24 24" fill="none" xmlns="http://www.w3.org/2000/svg">
<path d="M3 22H21C21.2652 22 21.5196 21.8946 21.7071 21.7071C21.8946 21.5196 22 21.2652 22 21V17C22 16.7348 21.8946 16.4804 21.7071 16.2929C21.5196 16.1054 21.2652 16 21 16H20V11H21C21.2652 11 21.5196 10.8946 21.7071 10.7071C21.8946 10.5196 22 10.2652 22 10V7C22 6.80652 21.9439 6.61719 21.8385 6.45495C21.7331 6.29272 21.5828 6.16456 21.406 6.086L12.406 2.086C12.2782 2.02922 12.1399 1.99988 12 1.99988C11.8601 1.99988 11.7218 2.02922 11.594 2.086L2.594 6.086C2.41718 6.16456 2.26695 6.29272 2.16151 6.45495C2.05608 6.61719 1.99998 6.80652 2 7V10C2 10.2652 2.10536 10.5196 2.29289 10.7071C2.48043 10.8946 2.73478 11 3 11H4V16H3C2.73478 16 2.48043 16.1054 2.29289 16.2929C2.10536 16.4804 2 16.7348 2 17V21C2 21.2652 2.10536 21.5196 2.29289 21.7071C2.48043 21.8946 2.73478 22 3 22ZM4 7.65L12 4.094L20 7.65V9H4V7.65ZM18 11V16H15.333V11H18ZM13.333 11V16H10.667V11H13.333ZM8.667 11V16H6V11H8.667ZM4 18H20V20H4V18ZM14 7C14 7.26522 13.8946 7.51958 13.7071 7.70711C13.5196 7.89465 13.2652 8 13 8H11C10.7348 8 10.4804 7.89465 10.2929 7.70711C10.1054 7.51958 10 7.26522 10 7C10 6.73479 10.1054 6.48043 10.2929 6.2929C10.4804 6.10536 10.7348 6 11 6H13C13.2652 6 13.5196 6.10536 13.7071 6.2929C13.8946 6.48043 14 6.73479 14 7Z" fill="white"/>
</svg>
