<svg width="22" height="10" viewBox="0 0 22 10" fill="none" xmlns="http://www.w3.org/2000/svg">
<path d="M17 0C15.822 0.0349672 14.668 0.340945 13.6274 0.894178C12.5868 1.44741 11.6878 2.23302 11 3.19C10.3122 2.23302 9.41317 1.44741 8.3726 0.894178C7.33204 0.340945 6.17797 0.0349672 5 0C1.313 0 0 2.583 0 5C0 8.687 2.583 10 5 10C6.17797 9.96503 7.33204 9.65905 8.3726 9.10582C9.41317 8.55259 10.3122 7.76698 11 6.81C11.6878 7.76698 12.5868 8.55259 13.6274 9.10582C14.668 9.65905 15.822 9.96503 17 10C19.417 10 22 8.687 22 5C22 2.583 20.687 0 17 0ZM5 8C4.59398 8.05044 4.1818 8.00757 3.79485 7.87464C3.4079 7.74171 3.05639 7.52223 2.76708 7.23292C2.47777 6.94361 2.25829 6.5921 2.12536 6.20515C1.99243 5.8182 1.94956 5.40602 2 5C1.94956 4.59398 1.99243 4.1818 2.12536 3.79485C2.25829 3.4079 2.47777 3.05639 2.76708 2.76708C3.05639 2.47777 3.4079 2.25829 3.79485 2.12536C4.1818 1.99243 4.59398 1.94956 5 2C7.579 2 9.225 4.065 9.837 5C9.225 5.935 7.579 8 5 8ZM17 8C14.421 8 12.775 5.935 12.163 5C12.775 4.065 14.421 2 17 2C17.406 1.94956 17.8182 1.99243 18.2052 2.12536C18.5921 2.25829 18.9436 2.47777 19.2329 2.76708C19.5222 3.05639 19.7417 3.4079 19.8746 3.79485C20.0076 4.1818 20.0504 4.59398 20 5C20.0504 5.40602 20.0076 5.8182 19.8746 6.20515C19.7417 6.5921 19.5222 6.94361 19.2329 7.23292C18.9436 7.52223 18.5921 7.74171 18.2052 7.87464C17.8182 8.00757 17.406 8.05044 17 8Z" fill="white"/>
</svg>
