<svg width="22" height="22" viewBox="0 0 22 22" fill="none" xmlns="http://www.w3.org/2000/svg">
<path d="M11 7C10.2089 7 9.43552 7.2346 8.77772 7.67412C8.11992 8.11365 7.60723 8.73836 7.30448 9.46927C7.00173 10.2002 6.92252 11.0044 7.07686 11.7804C7.2312 12.5563 7.61216 13.269 8.17157 13.8284C8.73098 14.3878 9.44372 14.7688 10.2196 14.9231C10.9956 15.0775 11.7998 14.9983 12.5307 14.6955C13.2616 14.3928 13.8864 13.8801 14.3259 13.2223C14.7654 12.5645 15 11.7911 15 11C15 9.93913 14.5786 8.92172 13.8284 8.17157C13.0783 7.42143 12.0609 7 11 7ZM11 13C10.6044 13 10.2178 12.8827 9.88886 12.6629C9.55996 12.4432 9.30362 12.1308 9.15224 11.7654C9.00087 11.3999 8.96126 10.9978 9.03843 10.6098C9.1156 10.2219 9.30608 9.86549 9.58579 9.58579C9.86549 9.30608 10.2219 9.1156 10.6098 9.03843C10.9978 8.96126 11.3999 9.00087 11.7654 9.15224C12.1308 9.30362 12.4432 9.55996 12.6629 9.88886C12.8827 10.2178 13 10.6044 13 11C13 11.5304 12.7893 12.0391 12.4142 12.4142C12.0391 12.7893 11.5304 13 11 13ZM19.99 8H18.415C18.407 7.978 18.379 7.893 18.369 7.871L19.479 6.761C19.8555 6.38395 20.067 5.87286 20.067 5.34C20.067 4.80714 19.8555 4.29605 19.479 3.919L18.079 2.519C17.8927 2.33207 17.6712 2.18388 17.4273 2.08296C17.1834 1.98204 16.9219 1.9304 16.658 1.931C16.3944 1.93066 16.1333 1.98243 15.8898 2.08335C15.6463 2.18426 15.4251 2.33231 15.239 2.519L14.07 3.612L14 3.58V2.009C13.9995 1.47617 13.7875 0.965329 13.4106 0.588654C13.0338 0.21198 12.5228 0.000264695 11.99 0H10.01C9.47717 0.000264695 8.96622 0.21198 8.58936 0.588654C8.2125 0.965329 8.00053 1.47617 8 2.009V3.566L7.914 3.615L7.871 3.631L6.765 2.522C6.57886 2.33501 6.35756 2.1867 6.11385 2.08562C5.87014 1.98453 5.60884 1.93266 5.345 1.933C5.08106 1.9324 4.81961 1.98404 4.57573 2.08496C4.33184 2.18588 4.11034 2.33407 3.924 2.521L2.524 3.921C2.14747 4.29805 1.93598 4.80914 1.93598 5.342C1.93598 5.87486 2.14747 6.38595 2.524 6.763L3.624 7.906C3.611 7.935 3.591 7.969 3.581 7.999H2.01C1.477 7.99926 0.965899 8.21112 0.589008 8.58801C0.212117 8.9649 0.000264978 9.476 0 10.009V11.991C0.000529851 12.5238 0.212499 13.0347 0.589361 13.4113C0.966223 13.788 1.47717 13.9997 2.01 14H3.585C3.593 14.022 3.621 14.107 3.631 14.129L2.521 15.239C2.14447 15.6161 1.93298 16.1271 1.93298 16.66C1.93298 17.1929 2.14447 17.7039 2.521 18.081L3.921 19.481C4.30395 19.8462 4.81282 20.05 5.342 20.05C5.87118 20.05 6.38005 19.8462 6.763 19.481L7.878 18.366C7.9 18.377 7.978 18.413 7.999 18.422V19.993C8.00006 20.5257 8.2124 21.0361 8.58942 21.4124C8.96644 21.7887 9.47734 22 10.01 22H11.99C12.5228 21.9997 13.0338 21.788 13.4106 21.4113C13.7875 21.0347 13.9995 20.5238 14 19.991V18.434L14.129 18.369L15.238 19.478C15.6209 19.8437 16.13 20.0478 16.6595 20.0478C17.189 20.0478 17.6981 19.8437 18.081 19.478L19.481 18.078C19.8575 17.7009 20.069 17.1899 20.069 16.657C20.069 16.1241 19.8575 15.6131 19.481 15.236L18.381 14.093C18.394 14.064 18.414 14.03 18.424 14H19.99C20.5228 13.9997 21.0338 13.788 21.4106 13.4113C21.7875 13.0347 21.9995 12.5238 22 11.991V10.009C21.9995 9.47617 21.7875 8.96533 21.4106 8.58865C21.0338 8.21198 20.5228 8.00027 19.99 8ZM19.99 12H18.421C18.0163 12.0119 17.6237 12.1405 17.2904 12.3704C16.9571 12.6002 16.6974 12.9215 16.5425 13.2956C16.3876 13.6697 16.3441 14.0805 16.4173 14.4787C16.4905 14.8769 16.6772 15.2455 16.955 15.54L18.064 16.664L16.65 18.064L15.54 16.955C15.2455 16.6773 14.8771 16.4905 14.479 16.4173C14.0809 16.3441 13.6701 16.3875 13.296 16.5422C12.922 16.697 12.6007 16.9566 12.3708 17.2898C12.1408 17.6229 12.0121 18.0154 12 18.42L11.99 20L10 19.991V18.42C9.99503 18.0118 9.86786 17.6144 9.6349 17.2791C9.40193 16.9438 9.07386 16.686 8.693 16.539C8.43437 16.4314 8.15712 16.3757 7.877 16.375C7.61429 16.3739 7.35393 16.4245 7.1108 16.524C6.86767 16.6236 6.64652 16.77 6.46 16.955L5.336 18.064L3.936 16.65L5.044 15.542C5.32239 15.2476 5.50967 14.879 5.58326 14.4805C5.65685 14.0821 5.61361 13.6709 5.45875 13.2965C5.30389 12.9221 5.04403 12.6005 4.7105 12.3704C4.37696 12.1404 3.984 12.0117 3.579 12L2 11.991L2.01 10H3.579C3.98369 9.98811 4.37632 9.85949 4.70961 9.62962C5.04289 9.39976 5.30263 9.07845 5.45753 8.70439C5.61244 8.33033 5.65592 7.91947 5.58273 7.52127C5.50953 7.12308 5.3228 6.75453 5.045 6.46L3.936 5.336L5.35 3.936L6.46 5.045C6.7482 5.32717 7.11359 5.51758 7.50997 5.59216C7.90636 5.66674 8.31595 5.62214 8.687 5.464L8.705 5.457C9.08322 5.30865 9.40854 5.05075 9.63926 4.71634C9.86998 4.38193 9.99559 3.98625 10 3.58L10.01 2L12 2.009V3.58C11.9999 3.97423 12.1163 4.35968 12.3347 4.68795C12.553 5.01621 12.8634 5.27263 13.227 5.425C13.253 5.438 13.284 5.452 13.314 5.464C13.6849 5.62219 14.0943 5.66681 14.4906 5.59223C14.8868 5.51765 15.252 5.3272 15.54 5.045L16.664 3.936L18.064 5.35L16.956 6.458C16.6776 6.75239 16.4903 7.12102 16.4167 7.51946C16.3431 7.91789 16.3864 8.3291 16.5412 8.70351C16.6961 9.07792 16.956 9.39954 17.2895 9.62958C17.623 9.85962 18.016 9.98827 18.421 10H19.99L20 10.009L19.99 12Z" fill="white"/>
</svg>
