<svg width="21" height="24" viewBox="0 0 21 24" fill="none" xmlns="http://www.w3.org/2000/svg">
<g filter="url(#filter0_i_43_473)">
<path d="M20.125 13V21C20.125 21.2652 20.0328 21.5196 19.8687 21.7071C19.7046 21.8947 19.4821 22 19.25 22H1.75C1.51794 22 1.29538 21.8947 1.13128 21.7071C0.967187 21.5196 0.875 21.2652 0.875 21V13C0.875 12.7348 0.967187 12.4805 1.13128 12.2929C1.29538 12.1054 1.51794 12 1.75 12C1.98206 12 2.20462 12.1054 2.36872 12.2929C2.53281 12.4805 2.625 12.7348 2.625 13V20H18.375V13C18.375 12.7348 18.4672 12.4805 18.6313 12.2929C18.7954 12.1054 19.0179 12 19.25 12C19.4821 12 19.7046 12.1054 19.8687 12.2929C20.0328 12.4805 20.125 12.7348 20.125 13ZM10.5 18C10.7321 18 10.9546 17.8947 11.1187 17.7071C11.2828 17.5196 11.375 17.2652 11.375 17V5.41403L13.3814 7.70703C13.5464 7.88919 13.7674 7.98998 13.9969 7.9877C14.2263 7.98543 14.4457 7.88026 14.608 7.69485C14.7702 7.50944 14.8622 7.25863 14.8642 6.99643C14.8662 6.73423 14.778 6.48163 14.6186 6.29303L11.1186 2.29303C10.9545 2.10556 10.732 2.00024 10.5 2.00024C10.268 2.00024 10.0455 2.10556 9.88138 2.29303L6.38138 6.29303C6.2978 6.38528 6.23114 6.49562 6.18529 6.61763C6.13943 6.73963 6.11529 6.87085 6.11428 7.00363C6.11327 7.13641 6.13541 7.26809 6.17941 7.39098C6.2234 7.51388 6.28837 7.62553 6.37053 7.71943C6.45269 7.81332 6.55038 7.88757 6.65792 7.93785C6.76545 7.98813 6.88067 8.01344 6.99685 8.01228C7.11303 8.01113 7.22785 7.98354 7.3346 7.93113C7.44136 7.87872 7.53791 7.80254 7.61862 7.70703L9.625 5.41403V17C9.625 17.2652 9.71719 17.5196 9.88128 17.7071C10.0454 17.8947 10.2679 18 10.5 18Z" fill="#E3B53C"/>
</g>
<defs>
<filter id="filter0_i_43_473" x="0" y="0" width="21" height="24" filterUnits="userSpaceOnUse" color-interpolation-filters="sRGB">
<feFlood flood-opacity="0" result="BackgroundImageFix"/>
<feBlend mode="normal" in="SourceGraphic" in2="BackgroundImageFix" result="shape"/>
<feColorMatrix in="SourceAlpha" type="matrix" values="0 0 0 0 0 0 0 0 0 0 0 0 0 0 0 0 0 0 127 0" result="hardAlpha"/>
<feOffset dx="0.5" dy="0.5"/>
<feComposite in2="hardAlpha" operator="arithmetic" k2="-1" k3="1"/>
<feColorMatrix type="matrix" values="0 0 0 0 0.152941 0 0 0 0 0.152941 0 0 0 0 0.152941 0 0 0 1 0"/>
<feBlend mode="normal" in2="shape" result="effect1_innerShadow_43_473"/>
</filter>
</defs>
</svg>
